<svg width="14" height="13" viewBox="0 0 14 13" fill="none" xmlns="http://www.w3.org/2000/svg">
<path d="M4.9987 0.333313L3.66536 1.66665H1.66536C0.93099 1.66665 0.332031 2.2656 0.332031 2.99998V11C0.332031 11.7344 0.93099 12.3333 1.66536 12.3333H12.332C13.0664 12.3333 13.6654 11.7344 13.6654 11V2.99998C13.6654 2.2656 13.0664 1.66665 12.332 1.66665H10.332L8.9987 0.333313H4.9987ZM6.9987 3.66665C8.86588 3.66665 10.332 5.13279 10.332 6.99998C10.332 8.86717 8.86588 10.3333 6.9987 10.3333C5.13151 10.3333 3.66536 8.86717 3.66536 6.99998C3.66536 5.13279 5.13151 3.66665 6.9987 3.66665ZM6.9987 4.66665C5.70963 4.66665 4.66536 5.71092 4.66536 6.99998C4.66536 8.28904 5.70963 9.33331 6.9987 9.33331C8.28776 9.33331 9.33203 8.28904 9.33203 6.99998C9.33203 5.71092 8.28776 4.66665 6.9987 4.66665Z" fill="#EA6147"/>
</svg>
