<svg width="17" height="17" viewBox="0 0 17 17" fill="none" xmlns="http://www.w3.org/2000/svg">
<path d="M8.5 0C3.81397 0 0 3.81397 0 8.5C0 13.186 3.81397 17 8.5 17C13.186 17 17 13.186 17 8.5C17 3.81397 13.186 0 8.5 0ZM8.5 1.41667C12.4204 1.41667 15.5833 4.57959 15.5833 8.5C15.5833 12.4204 12.4204 15.5833 8.5 15.5833C4.57959 15.5833 1.41667 12.4204 1.41667 8.5C1.41667 4.57959 4.57959 1.41667 8.5 1.41667ZM6.16748 5.16585L5.16585 6.16748L7.49837 8.5L5.16585 10.8325L6.16748 11.8341L8.5 9.50163L10.8325 11.8341L11.8341 10.8325L9.50163 8.5L11.8341 6.16748L10.8325 5.16585L8.5 7.49837L6.16748 5.16585Z" fill="#FF0000"/>
<path d="M8.5 0C3.81397 0 0 3.81397 0 8.5C0 13.186 3.81397 17 8.5 17C13.186 17 17 13.186 17 8.5C17 3.81397 13.186 0 8.5 0ZM8.5 1.41667C12.4204 1.41667 15.5833 4.57959 15.5833 8.5C15.5833 12.4204 12.4204 15.5833 8.5 15.5833C4.57959 15.5833 1.41667 12.4204 1.41667 8.5C1.41667 4.57959 4.57959 1.41667 8.5 1.41667ZM6.16748 5.16585L5.16585 6.16748L7.49837 8.5L5.16585 10.8325L6.16748 11.8341L8.5 9.50163L10.8325 11.8341L11.8341 10.8325L9.50163 8.5L11.8341 6.16748L10.8325 5.16585L8.5 7.49837L6.16748 5.16585Z" fill="url(#paint0_linear)"/>
<defs>
<linearGradient id="paint0_linear" x1="8.5" y1="0" x2="8.5" y2="17" gradientUnits="userSpaceOnUse">
<stop stop-color="#F10000"/>
<stop offset="1" stop-color="white" stop-opacity="0"/>
</linearGradient>
</defs>
</svg>
