<svg width="18" height="18" viewBox="0 0 24 24" fill="none" xmlns="http://www.w3.org/2000/svg">
<path d="M1.92 0.959961C1.63125 0.959961 1.44 1.15121 1.44 1.43996V2.87996C1.44 3.02434 1.49438 3.11434 1.59 3.20996L9.27 11.37C9.36563 11.4656 9.50438 11.52 9.6 11.52H14.4C14.5444 11.52 14.6344 11.4656 14.73 11.37L22.41 3.20996C22.5056 3.11434 22.56 3.02434 22.56 2.87996V1.43996C22.56 1.15121 22.3688 0.959961 22.08 0.959961H1.92ZM9.12 12.48V19.68C9.12 19.8712 9.21563 20.0193 9.36 20.115L14.16 22.995C14.2088 23.0437 14.3044 23.04 14.4 23.04C14.4956 23.04 14.5444 23.0437 14.64 22.995C14.7844 22.8993 14.88 22.7512 14.88 22.56V12.48H9.12Z" fill="#ff715f"/>
</svg>
