<svg width="24" height="24" viewBox="0 0 24 24" fill="none" xmlns="http://www.w3.org/2000/svg">
<path d="M6.24005 0C3.83172 0 2.34936 0.241713 1.44661 0.497813C0.995234 0.625862 0.688813 0.757909 0.485673 0.86625C0.393428 0.915447 0.321013 0.964801 0.263485 1.00594C0.263202 1.00614 0.26283 1.00667 0.262548 1.00688C0.205382 1.0362 0.154685 1.0767 0.113459 1.12598C0.0722337 1.17525 0.0413193 1.23231 0.022548 1.29375C0.0177295 1.30885 0.013662 1.32418 0.0103605 1.33969C0.00705819 1.35549 0.00455501 1.37145 0.0028605 1.3875C0.0012477 1.40214 0.000309212 1.41684 4.80037e-05 1.43156C4.31213e-05 1.43281 4.31213e-05 1.43406 4.80037e-05 1.43531C4.0375e-05 1.43687 4.0375e-05 1.43844 4.80037e-05 1.44V14.4V23.52C-0.000851539 23.5836 0.0108994 23.6468 0.034618 23.7058C0.0583366 23.7648 0.0935498 23.8185 0.138211 23.8638C0.182873 23.9091 0.236091 23.9451 0.294775 23.9696C0.353458 23.9942 0.416436 24.0068 0.480048 24.0068C0.54366 24.0068 0.606638 23.9942 0.665321 23.9696C0.724005 23.9451 0.777223 23.9091 0.821885 23.8638C0.866546 23.8185 0.901759 23.7648 0.925478 23.7058C0.949197 23.6468 0.960947 23.5836 0.960048 23.52V14.7403C1.09135 14.6794 1.2838 14.571 2.01942 14.3859C2.93602 14.1553 4.33555 13.92 6.24005 13.92C8.10503 13.92 9.49339 14.3781 11.1844 14.8613C12.8755 15.3444 14.8503 15.84 17.76 15.84C21.1193 15.84 23.7563 14.3381 23.7563 14.3381C23.8303 14.2963 23.8919 14.2355 23.9347 14.162C23.9775 14.0886 24.0001 14.005 24 13.92V1.92C24.0001 1.83634 23.9784 1.7541 23.9369 1.68145C23.8954 1.6088 23.8356 1.54825 23.7635 1.50581C23.6914 1.46336 23.6095 1.4405 23.5258 1.43948C23.4422 1.43846 23.3597 1.45933 23.2866 1.5C22.8942 1.71801 20.6571 2.88 17.76 2.88C15.456 2.88 13.8563 2.19828 12.1707 1.47844C10.4851 0.758599 8.71302 0 6.24005 0ZM6.24005 0.96C8.51908 0.96 10.1074 1.6414 11.7938 2.36156C13.4802 3.08172 15.264 3.84 17.76 3.84C20.3468 3.84 22.1241 3.08759 23.04 2.64375V13.6059C22.7068 13.7841 20.6002 14.88 17.76 14.88C14.9578 14.88 13.1168 14.4156 11.4479 13.9388C9.77889 13.4619 8.26306 12.96 6.24005 12.96C4.25654 12.96 2.77645 13.2047 1.78505 13.4541C1.5168 13.5215 1.37473 13.5663 1.26755 13.6069C1.16037 13.6475 1.08808 13.684 0.960048 13.7344V1.70531C1.09664 1.6337 1.32598 1.53088 1.70911 1.42219C2.49836 1.19829 3.89637 0.96 6.24005 0.96Z" fill="black"/>
</svg>
