<svg xmlns="http://www.w3.org/2000/svg" viewBox="0 0 25.21 25.73"><defs><style>.cls-1{fill:#4285f4;}.cls-2{fill:#34a853;}.cls-3{fill:#fbbc05;}.cls-4{fill:#eb4335;}</style></defs><g id="Layer_2" data-name="Layer 2"><g id="_Layer_" data-name="&lt;Layer&gt;"><path class="cls-1" d="M25.21,13.15a10.8,10.8,0,0,0-.27-2.63H12.86v4.77H20a6.26,6.26,0,0,1-2.63,4.18l0,.16,3.82,2.95.26,0a12.58,12.58,0,0,0,3.83-9.46"/><path class="cls-2" d="M12.86,25.73a12.27,12.27,0,0,0,8.52-3.12l-4.06-3.14a7.64,7.64,0,0,1-4.46,1.28,7.72,7.72,0,0,1-7.31-5.34H5.39l-4,3.07,0,.15a12.86,12.86,0,0,0,11.49,7.09"/><path class="cls-3" d="M5.55,15.41a7.71,7.71,0,0,1-.43-2.55,8.24,8.24,0,0,1,.41-2.54v-.17L1.5,7l-.13.06a12.86,12.86,0,0,0,0,11.55l4.18-3.23"/><path class="cls-4" d="M12.86,5a7.15,7.15,0,0,1,5,1.92l3.63-3.55A12.37,12.37,0,0,0,12.86,0,12.86,12.86,0,0,0,1.37,7.09l4.16,3.23A7.78,7.78,0,0,1,12.86,5"/></g></g></svg>