<svg xmlns="http://www.w3.org/2000/svg" viewBox="0 0 48.76 34.75"><defs><style>.cls-1{fill:#307FE2;}</style></defs><g id="Layer_2" data-name="Layer 2"><g id="_Layer_" data-name="&lt;Layer&gt;"><path class="cls-1" d="M46.27,0,24.39,20.14,2.5,0Z"/><path class="cls-1" d="M2.5,34.75,18.85,19.67q2.05,1.91,4.09,3.76a1.78,1.78,0,0,0,2.87,0l3.62-3.34.47-.42L46.27,34.75Z"/><path class="cls-1" d="M48.76,2.35v30c-.18-.14-.31-.22-.42-.32Q40.6,24.92,32.86,17.81c-.4-.37-.35-.55,0-.89Q40.59,9.86,48.27,2.76Z"/><path class="cls-1" d="M0,32.39v-30l.48.41L15.83,16.89c.53.48.53.48,0,.94L.46,32C.35,32.11.22,32.21,0,32.39Z"/></g></g></svg>