<svg width="24" height="24" viewBox="0 0 24 24" fill="none" xmlns="http://www.w3.org/2000/svg">
<path d="M23.2493 10.4992C22.8353 10.4992 22.4993 10.8352 22.4993 11.2492V19.7417L16.4997 22.1415V14.249C16.4997 13.835 16.1637 13.499 15.7497 13.499C15.3358 13.499 14.9998 13.835 14.9998 14.249V22.14L9.00017 19.7402V7.8579L12.4755 9.24831C12.8549 9.4013 13.2959 9.21531 13.4504 8.82983C13.6049 8.44586 13.4174 8.00939 13.0319 7.8549L8.5427 6.05801C8.5427 6.05801 8.5427 6.05801 8.5412 6.05801L8.5292 6.05351C8.35071 5.98151 8.15122 5.98151 7.97273 6.05351L7.95923 6.05801C7.95923 6.05801 7.95924 6.05801 7.95774 6.05801L0.471703 9.05332C0.188221 9.16731 0.000732422 9.4418 0.000732422 9.74928V23.2484C0.000732422 23.4974 0.125225 23.7299 0.330712 23.8694C0.456704 23.9549 0.602195 23.9984 0.750686 23.9984C0.84518 23.9984 0.939674 23.9804 1.02967 23.9444L8.25022 21.0571L15.4573 23.9399C15.4573 23.9399 15.4573 23.9399 15.4588 23.9399L15.4723 23.9459C15.6508 24.0179 15.8502 24.0179 16.0287 23.9459L16.0422 23.9399C16.0422 23.9399 16.0422 23.9399 16.0437 23.9399L23.5298 20.9461C23.8117 20.8306 23.9992 20.5561 23.9992 20.2486V11.2492C23.9992 10.8352 23.6633 10.4992 23.2493 10.4992ZM7.50026 19.7402L1.50064 22.14V10.2562L7.50026 7.8564V19.7402Z" fill="#EA6147"/>
<path d="M18.7496 2.99976C17.5092 2.99976 16.4998 4.00919 16.4998 5.24962C16.4998 6.49004 17.5092 7.49948 18.7496 7.49948C19.99 7.49948 20.9995 6.49004 20.9995 5.24962C20.9995 4.00919 19.99 2.99976 18.7496 2.99976ZM18.7496 5.99957C18.3356 5.99957 17.9997 5.66359 17.9997 5.24962C17.9997 4.83564 18.3356 4.49966 18.7496 4.49966C19.1636 4.49966 19.4996 4.83564 19.4996 5.24962C19.4996 5.66359 19.1636 5.99957 18.7496 5.99957Z" fill="#EA6147"/>
<path d="M18.7495 0C15.8547 0 13.4999 2.35485 13.4999 5.24967C13.4999 7.9435 17.7116 12.7147 18.1916 13.2502C18.3341 13.4077 18.5366 13.4992 18.7495 13.4992C18.9625 13.4992 19.165 13.4077 19.3075 13.2502C19.7875 12.7147 23.9992 7.9435 23.9992 5.24967C23.9992 2.35485 21.6444 0 18.7495 0ZM18.7495 11.6048C17.1117 9.6624 14.9998 6.68058 14.9998 5.24967C14.9998 3.1828 16.6827 1.49991 18.7495 1.49991C20.8164 1.49991 22.4993 3.1828 22.4993 5.24967C22.4993 6.67908 20.3874 9.6624 18.7495 11.6048Z" fill="#EA6147"/>
</svg>
