<svg xmlns="http://www.w3.org/2000/svg" viewBox="0 0 540.11 6.43"><defs><style>.cls-1{fill:#307FE2;}.cls-2{fill:#ff715f;}</style></defs><g id="Layer_2" data-name="Layer 2"><g id="_Layer_" data-name="&lt;Layer&gt;"><polygon class="cls-1" points="5.91 0 0 6.43 16.38 6.43 22.29 0 5.91 0"/><polygon class="cls-2" points="36.37 0 30.46 6.43 46.84 6.43 52.75 0 36.37 0"/><polygon class="cls-1" points="66.83 0 60.92 6.43 77.31 6.43 83.21 0 66.83 0"/><polygon class="cls-2" points="97.29 0 91.39 6.43 107.77 6.43 113.68 0 97.29 0"/><polygon class="cls-1" points="127.76 0 121.85 6.43 138.23 6.43 144.14 0 127.76 0"/><polygon class="cls-2" points="158.22 0 152.31 6.43 168.7 6.43 174.6 0 158.22 0"/><polygon class="cls-1" points="188.68 0 182.78 6.43 199.16 6.43 205.06 0 188.68 0"/><polygon class="cls-2" points="219.15 0 213.24 6.43 229.62 6.43 235.53 0 219.15 0"/><polygon class="cls-1" points="249.61 0 243.7 6.43 260.08 6.43 265.99 0 249.61 0"/><polygon class="cls-2" points="280.07 0 274.17 6.43 290.55 6.43 296.45 0 280.07 0"/><polygon class="cls-1" points="310.49 0 304.59 6.43 320.97 6.43 326.88 0 310.49 0"/><polygon class="cls-2" points="340.96 0 335.05 6.43 351.43 6.43 357.34 0 340.96 0"/><polygon class="cls-1" points="371.42 0 365.51 6.43 381.89 6.43 387.8 0 371.42 0"/><polygon class="cls-2" points="401.88 0 395.98 6.43 412.36 6.43 418.26 0 401.88 0"/><polygon class="cls-1" points="432.34 0 426.44 6.43 442.82 6.43 448.73 0 432.34 0"/><polygon class="cls-2" points="462.81 0 456.9 6.43 473.28 6.43 479.19 0 462.81 0"/><polygon class="cls-1" points="493.27 0 487.36 6.43 503.75 6.43 509.65 0 493.27 0"/><polygon class="cls-2" points="523.73 0 517.83 6.43 534.21 6.43 540.11 0 523.73 0"/></g></g></svg>