<svg width="180" height="32" viewBox="0 0 180 32" fill="none" xmlns="http://www.w3.org/2000/svg">
<path d="M180 29L166.755 16L180 3.00001L47.0001 3L47.0001 29L180 29Z" fill="#0081DF"/>
<path d="M24 3.00012L37.245 16.0001L24 29.0001H157V3.00012H24Z" fill="#0081DF"/>
<!-- <path d="M71.8348 11.2H73.2768L78.1068 18.536V11.2H79.4508V21H78.3168L73.1648 13.258V21H71.8348V11.2ZM84.5249 21.14C83.7409 21.14 83.0689 20.9813 82.5089 20.664C81.9582 20.3373 81.5382 19.8987 81.2489 19.348C80.9595 18.7973 80.8149 18.186 80.8149 17.514C80.8149 16.87 80.9455 16.282 81.2069 15.75C81.4775 15.2087 81.8649 14.784 82.3689 14.476C82.8822 14.1587 83.4842 14 84.1749 14C85.0522 14 85.7615 14.2567 86.3029 14.77C86.8535 15.2833 87.1289 15.9927 87.1289 16.898C87.1289 17.1313 87.1102 17.3553 87.0729 17.57H82.1029C82.1869 18.4567 82.4575 19.0867 82.9149 19.46C83.3722 19.8333 83.9602 20.02 84.6789 20.02C85.3975 20.02 86.0555 19.8847 86.6529 19.614L86.8209 20.608C86.0275 20.9627 85.2622 21.14 84.5249 21.14ZM85.8269 16.702C85.8269 16.2073 85.6869 15.82 85.4069 15.54C85.1269 15.26 84.7069 15.12 84.1469 15.12C83.6055 15.12 83.1809 15.2553 82.8729 15.526C82.5649 15.7873 82.3455 16.1793 82.2149 16.702H85.8269ZM91.6749 14C92.5429 14 93.2056 14.2847 93.6629 14.854C94.1203 15.4233 94.3489 16.198 94.3489 17.178V21H93.0889V17.332C93.0889 16.576 92.9489 16.0207 92.6689 15.666C92.3983 15.302 91.9736 15.12 91.3949 15.12C91.0403 15.12 90.7136 15.204 90.4149 15.372C90.1163 15.5307 89.8643 15.7593 89.6589 16.058V21H88.3849V10.5H89.6589V14.798C89.9296 14.5367 90.2236 14.3407 90.5409 14.21C90.8676 14.07 91.2456 14 91.6749 14ZM97.5828 21.14C96.9481 21.14 96.4348 20.9533 96.0428 20.58C95.6601 20.2067 95.4688 19.7307 95.4688 19.152C95.4688 18.284 95.8795 17.6633 96.7008 17.29C97.5221 16.9167 98.4788 16.7207 99.5708 16.702C99.5708 16.086 99.4495 15.6707 99.2068 15.456C98.9735 15.232 98.5955 15.12 98.0728 15.12C97.7835 15.12 97.4941 15.1667 97.2048 15.26C96.9155 15.344 96.6028 15.5027 96.2668 15.736L96.0848 14.714C96.3648 14.4993 96.7101 14.3267 97.1208 14.196C97.5315 14.0653 97.9608 14 98.4088 14C98.9968 14 99.4635 14.1027 99.8088 14.308C100.163 14.5133 100.42 14.854 100.579 15.33C100.747 15.806 100.831 16.4593 100.831 17.29V18.69C100.831 19.0633 100.845 19.348 100.873 19.544C100.91 19.7307 100.985 19.8753 101.097 19.978C101.209 20.0807 101.381 20.132 101.615 20.132H101.741L101.545 21.14H101.447C101.055 21.14 100.747 21.1027 100.523 21.028C100.299 20.9533 100.126 20.846 100.005 20.706C99.8928 20.566 99.7855 20.3747 99.6828 20.132C99.1041 20.804 98.4041 21.14 97.5828 21.14ZM97.8208 20.132C98.1568 20.132 98.4788 20.048 98.7868 19.88C99.1041 19.712 99.3655 19.488 99.5708 19.208V17.57C98.5628 17.6073 97.8395 17.7427 97.4008 17.976C96.9715 18.2 96.7568 18.5687 96.7568 19.082C96.7568 19.4367 96.8501 19.7027 97.0368 19.88C97.2328 20.048 97.4941 20.132 97.8208 20.132ZM108.924 21.196C108.345 21.196 107.757 21.1307 107.16 21C106.563 20.8787 106.082 20.734 105.718 20.566L105.9 19.152C106.367 19.376 106.894 19.572 107.482 19.74C108.07 19.908 108.653 19.992 109.232 19.992C109.885 19.992 110.389 19.8753 110.744 19.642C111.108 19.3993 111.29 19.04 111.29 18.564C111.29 18.2093 111.197 17.9153 111.01 17.682C110.833 17.4393 110.567 17.2387 110.212 17.08C109.867 16.912 109.381 16.7347 108.756 16.548C108.121 16.3613 107.594 16.1607 107.174 15.946C106.754 15.7313 106.413 15.4373 106.152 15.064C105.9 14.6907 105.774 14.2193 105.774 13.65C105.774 12.8567 106.077 12.2173 106.684 11.732C107.3 11.2467 108.163 11.004 109.274 11.004C109.871 11.004 110.436 11.0693 110.968 11.2C111.509 11.3307 111.981 11.4893 112.382 11.676L112.242 13.09C111.719 12.782 111.215 12.558 110.73 12.418C110.245 12.278 109.741 12.208 109.218 12.208C108.611 12.208 108.126 12.32 107.762 12.544C107.407 12.768 107.23 13.1133 107.23 13.58C107.23 13.8973 107.309 14.1587 107.468 14.364C107.636 14.5693 107.874 14.7467 108.182 14.896C108.49 15.036 108.919 15.19 109.47 15.358C110.571 15.694 111.393 16.0953 111.934 16.562C112.475 17.0193 112.746 17.654 112.746 18.466C112.746 19.3247 112.424 19.9967 111.78 20.482C111.136 20.958 110.184 21.196 108.924 21.196ZM117.228 14C118.096 14 118.758 14.2847 119.216 14.854C119.673 15.4233 119.902 16.198 119.902 17.178V21H118.642V17.332C118.642 16.576 118.502 16.0207 118.222 15.666C117.951 15.302 117.526 15.12 116.948 15.12C116.593 15.12 116.266 15.204 115.968 15.372C115.669 15.5307 115.417 15.7593 115.212 16.058V21H113.938V10.5H115.212V14.798C115.482 14.5367 115.776 14.3407 116.094 14.21C116.42 14.07 116.798 14 117.228 14ZM123.136 21.14C122.501 21.14 121.988 20.9533 121.596 20.58C121.213 20.2067 121.022 19.7307 121.022 19.152C121.022 18.284 121.432 17.6633 122.254 17.29C123.075 16.9167 124.032 16.7207 125.124 16.702C125.124 16.086 125.002 15.6707 124.76 15.456C124.526 15.232 124.148 15.12 123.626 15.12C123.336 15.12 123.047 15.1667 122.758 15.26C122.468 15.344 122.156 15.5027 121.82 15.736L121.638 14.714C121.918 14.4993 122.263 14.3267 122.674 14.196C123.084 14.0653 123.514 14 123.962 14C124.55 14 125.016 14.1027 125.362 14.308C125.716 14.5133 125.973 14.854 126.132 15.33C126.3 15.806 126.384 16.4593 126.384 17.29V18.69C126.384 19.0633 126.398 19.348 126.426 19.544C126.463 19.7307 126.538 19.8753 126.65 19.978C126.762 20.0807 126.934 20.132 127.168 20.132H127.294L127.098 21.14H127C126.608 21.14 126.3 21.1027 126.076 21.028C125.852 20.9533 125.679 20.846 125.558 20.706C125.446 20.566 125.338 20.3747 125.236 20.132C124.657 20.804 123.957 21.14 123.136 21.14ZM123.374 20.132C123.71 20.132 124.032 20.048 124.34 19.88C124.657 19.712 124.918 19.488 125.124 19.208V17.57C124.116 17.6073 123.392 17.7427 122.954 17.976C122.524 18.2 122.31 18.5687 122.31 19.082C122.31 19.4367 122.403 19.7027 122.59 19.88C122.786 20.048 123.047 20.132 123.374 20.132ZM131.542 14C132.41 14 133.073 14.2847 133.53 14.854C133.987 15.4233 134.216 16.198 134.216 17.178V21H132.956V17.332C132.956 16.576 132.816 16.0207 132.536 15.666C132.265 15.302 131.841 15.12 131.262 15.12C130.907 15.12 130.581 15.204 130.282 15.372C129.983 15.5307 129.731 15.7593 129.526 16.058V21H128.252V10.5H129.526V14.798C129.797 14.5367 130.091 14.3407 130.408 14.21C130.735 14.07 131.113 14 131.542 14Z" fill="white"/> -->
<path d="M156 29L142.755 16L156 3.00001L23.0001 3L23.0001 29L156 29Z" fill="#0081DF"/>
<path d="M0 3.00012L13.245 16.0001L0 29.0001H133V3.00012H0Z" fill="#0081DF"/>
<!-- <path d="M58.8348 11.2H60.2768L65.1068 18.536V11.2H66.4508V21H65.3168L60.1648 13.258V21H58.8348V11.2ZM71.5249 21.14C70.7409 21.14 70.0689 20.9813 69.5089 20.664C68.9582 20.3373 68.5382 19.8987 68.2489 19.348C67.9595 18.7973 67.8149 18.186 67.8149 17.514C67.8149 16.87 67.9455 16.282 68.2069 15.75C68.4775 15.2087 68.8649 14.784 69.3689 14.476C69.8822 14.1587 70.4842 14 71.1749 14C72.0522 14 72.7615 14.2567 73.3029 14.77C73.8535 15.2833 74.1289 15.9927 74.1289 16.898C74.1289 17.1313 74.1102 17.3553 74.0729 17.57H69.1029C69.1869 18.4567 69.4575 19.0867 69.9149 19.46C70.3722 19.8333 70.9602 20.02 71.6789 20.02C72.3975 20.02 73.0555 19.8847 73.6529 19.614L73.8209 20.608C73.0275 20.9627 72.2622 21.14 71.5249 21.14ZM72.8269 16.702C72.8269 16.2073 72.6869 15.82 72.4069 15.54C72.1269 15.26 71.7069 15.12 71.1469 15.12C70.6055 15.12 70.1809 15.2553 69.8729 15.526C69.5649 15.7873 69.3455 16.1793 69.2149 16.702H72.8269ZM78.6749 14C79.5429 14 80.2056 14.2847 80.6629 14.854C81.1203 15.4233 81.3489 16.198 81.3489 17.178V21H80.0889V17.332C80.0889 16.576 79.9489 16.0207 79.6689 15.666C79.3983 15.302 78.9736 15.12 78.3949 15.12C78.0403 15.12 77.7136 15.204 77.4149 15.372C77.1163 15.5307 76.8643 15.7593 76.6589 16.058V21H75.3849V10.5H76.6589V14.798C76.9296 14.5367 77.2236 14.3407 77.5409 14.21C77.8676 14.07 78.2456 14 78.6749 14ZM84.5828 21.14C83.9481 21.14 83.4348 20.9533 83.0428 20.58C82.6601 20.2067 82.4688 19.7307 82.4688 19.152C82.4688 18.284 82.8795 17.6633 83.7008 17.29C84.5221 16.9167 85.4788 16.7207 86.5708 16.702C86.5708 16.086 86.4495 15.6707 86.2068 15.456C85.9735 15.232 85.5955 15.12 85.0728 15.12C84.7835 15.12 84.4941 15.1667 84.2048 15.26C83.9155 15.344 83.6028 15.5027 83.2668 15.736L83.0848 14.714C83.3648 14.4993 83.7101 14.3267 84.1208 14.196C84.5315 14.0653 84.9608 14 85.4088 14C85.9968 14 86.4635 14.1027 86.8088 14.308C87.1635 14.5133 87.4201 14.854 87.5788 15.33C87.7468 15.806 87.8308 16.4593 87.8308 17.29V18.69C87.8308 19.0633 87.8448 19.348 87.8728 19.544C87.9101 19.7307 87.9848 19.8753 88.0968 19.978C88.2088 20.0807 88.3815 20.132 88.6148 20.132H88.7408L88.5448 21.14H88.4468C88.0548 21.14 87.7468 21.1027 87.5228 21.028C87.2988 20.9533 87.1261 20.846 87.0048 20.706C86.8928 20.566 86.7855 20.3747 86.6828 20.132C86.1041 20.804 85.4041 21.14 84.5828 21.14ZM84.8208 20.132C85.1568 20.132 85.4788 20.048 85.7868 19.88C86.1041 19.712 86.3655 19.488 86.5708 19.208V17.57C85.5628 17.6073 84.8395 17.7427 84.4008 17.976C83.9715 18.2 83.7568 18.5687 83.7568 19.082C83.7568 19.4367 83.8501 19.7027 84.0368 19.88C84.2328 20.048 84.4941 20.132 84.8208 20.132ZM95.9239 21.196C95.3452 21.196 94.7572 21.1307 94.1599 21C93.5626 20.8787 93.0819 20.734 92.7179 20.566L92.8999 19.152C93.3666 19.376 93.8939 19.572 94.4819 19.74C95.0699 19.908 95.6532 19.992 96.2319 19.992C96.8852 19.992 97.3892 19.8753 97.7439 19.642C98.1079 19.3993 98.2899 19.04 98.2899 18.564C98.2899 18.2093 98.1966 17.9153 98.0099 17.682C97.8326 17.4393 97.5666 17.2387 97.2119 17.08C96.8666 16.912 96.3812 16.7347 95.7559 16.548C95.1212 16.3613 94.5939 16.1607 94.1739 15.946C93.7539 15.7313 93.4132 15.4373 93.1519 15.064C92.8999 14.6907 92.7739 14.2193 92.7739 13.65C92.7739 12.8567 93.0772 12.2173 93.6839 11.732C94.2999 11.2467 95.1632 11.004 96.2739 11.004C96.8712 11.004 97.4359 11.0693 97.9679 11.2C98.5092 11.3307 98.9806 11.4893 99.3819 11.676L99.2419 13.09C98.7192 12.782 98.2152 12.558 97.7299 12.418C97.2446 12.278 96.7406 12.208 96.2179 12.208C95.6112 12.208 95.1259 12.32 94.7619 12.544C94.4072 12.768 94.2299 13.1133 94.2299 13.58C94.2299 13.8973 94.3092 14.1587 94.4679 14.364C94.6359 14.5693 94.8739 14.7467 95.1819 14.896C95.4899 15.036 95.9192 15.19 96.4699 15.358C97.5712 15.694 98.3926 16.0953 98.9339 16.562C99.4752 17.0193 99.7459 17.654 99.7459 18.466C99.7459 19.3247 99.4239 19.9967 98.7799 20.482C98.1359 20.958 97.1839 21.196 95.9239 21.196ZM104.228 14C105.096 14 105.758 14.2847 106.216 14.854C106.673 15.4233 106.902 16.198 106.902 17.178V21H105.642V17.332C105.642 16.576 105.502 16.0207 105.222 15.666C104.951 15.302 104.526 15.12 103.948 15.12C103.593 15.12 103.266 15.204 102.968 15.372C102.669 15.5307 102.417 15.7593 102.212 16.058V21H100.938V10.5H102.212V14.798C102.482 14.5367 102.776 14.3407 103.094 14.21C103.42 14.07 103.798 14 104.228 14ZM110.136 21.14C109.501 21.14 108.988 20.9533 108.596 20.58C108.213 20.2067 108.022 19.7307 108.022 19.152C108.022 18.284 108.432 17.6633 109.254 17.29C110.075 16.9167 111.032 16.7207 112.124 16.702C112.124 16.086 112.002 15.6707 111.76 15.456C111.526 15.232 111.148 15.12 110.626 15.12C110.336 15.12 110.047 15.1667 109.758 15.26C109.468 15.344 109.156 15.5027 108.82 15.736L108.638 14.714C108.918 14.4993 109.263 14.3267 109.674 14.196C110.084 14.0653 110.514 14 110.962 14C111.55 14 112.016 14.1027 112.362 14.308C112.716 14.5133 112.973 14.854 113.132 15.33C113.3 15.806 113.384 16.4593 113.384 17.29V18.69C113.384 19.0633 113.398 19.348 113.426 19.544C113.463 19.7307 113.538 19.8753 113.65 19.978C113.762 20.0807 113.934 20.132 114.168 20.132H114.294L114.098 21.14H114C113.608 21.14 113.3 21.1027 113.076 21.028C112.852 20.9533 112.679 20.846 112.558 20.706C112.446 20.566 112.338 20.3747 112.236 20.132C111.657 20.804 110.957 21.14 110.136 21.14ZM110.374 20.132C110.71 20.132 111.032 20.048 111.34 19.88C111.657 19.712 111.918 19.488 112.124 19.208V17.57C111.116 17.6073 110.392 17.7427 109.954 17.976C109.524 18.2 109.31 18.5687 109.31 19.082C109.31 19.4367 109.403 19.7027 109.59 19.88C109.786 20.048 110.047 20.132 110.374 20.132ZM118.542 14C119.41 14 120.073 14.2847 120.53 14.854C120.987 15.4233 121.216 16.198 121.216 17.178V21H119.956V17.332C119.956 16.576 119.816 16.0207 119.536 15.666C119.265 15.302 118.841 15.12 118.262 15.12C117.907 15.12 117.581 15.204 117.282 15.372C116.983 15.5307 116.731 15.7593 116.526 16.058V21H115.252V10.5H116.526V14.798C116.797 14.5367 117.091 14.3407 117.408 14.21C117.735 14.07 118.113 14 118.542 14Z" fill="white"/> -->
</svg>
