<svg xmlns="http://www.w3.org/2000/svg" viewBox="0 0 326.88 6.43"><defs><style>.cls-1{fill:#307FE2;}.cls-2{fill:#ff715f;}</style></defs><g id="Layer_2" data-name="Layer 2"><g id="_Layer_" data-name="&lt;Layer&gt;"><polygon class="cls-1" points="5.91 0 0 6.43 16.38 6.43 22.29 0 5.91 0"/><polygon class="cls-2" points="36.37 0 30.46 6.43 46.84 6.43 52.75 0 36.37 0"/><polygon class="cls-1" points="66.83 0 60.92 6.43 77.31 6.43 83.21 0 66.83 0"/><polygon class="cls-2" points="97.29 0 91.39 6.43 107.77 6.43 113.68 0 97.29 0"/><polygon class="cls-1" points="127.76 0 121.85 6.43 138.23 6.43 144.14 0 127.76 0"/><polygon class="cls-2" points="158.22 0 152.31 6.43 168.7 6.43 174.6 0 158.22 0"/><polygon class="cls-1" points="188.68 0 182.78 6.43 199.16 6.43 205.06 0 188.68 0"/><polygon class="cls-2" points="219.15 0 213.24 6.43 229.62 6.43 235.53 0 219.15 0"/><polygon class="cls-1" points="249.61 0 243.7 6.43 260.08 6.43 265.99 0 249.61 0"/><polygon class="cls-2" points="280.07 0 274.17 6.43 290.55 6.43 296.45 0 280.07 0"/><polygon class="cls-1" points="310.49 0 304.59 6.43 320.97 6.43 326.88 0 310.49 0"/></g></g></svg>