<svg xmlns="http://www.w3.org/2000/svg" viewBox="0 0 1462.5 13.57"><defs><style>.cls-1{fill:#fff;}</style></defs><g id="Layer_2" data-name="Layer 2"><g id="_Layer_" data-name="&lt;Layer&gt;"><path class="cls-1" d="M162.5,13.57V7a7,7,0,0,1-7-7h-6.68a6.77,6.77,0,1,1-13.54,0h-6.77A6.77,6.77,0,1,1,115,0h-6.77A6.77,6.77,0,1,1,94.67,0H87.9A6.77,6.77,0,1,1,74.36,0H67.59A6.77,6.77,0,1,1,54.05,0H47.28A6.77,6.77,0,1,1,33.74,0H27.21A6.77,6.77,0,1,1,13.67,0H7A7,7,0,0,1,0,7v6.57Z"/><path class="cls-1" d="M325,13.57V7a7,7,0,0,1-7-7h-6.68a6.77,6.77,0,1,1-13.54,0H291a6.77,6.77,0,1,1-13.54,0h-6.77a6.77,6.77,0,1,1-13.54,0H250.4a6.77,6.77,0,1,1-13.54,0h-6.77a6.77,6.77,0,1,1-13.54,0h-6.77a6.77,6.77,0,1,1-13.54,0h-6.53a6.77,6.77,0,1,1-13.54,0h-6.68a7,7,0,0,1-7,7v6.57Z"/><path class="cls-1" d="M487.5,13.57V7a7,7,0,0,1-7-7h-6.68a6.77,6.77,0,1,1-13.54,0h-6.77A6.77,6.77,0,1,1,440,0h-6.77a6.77,6.77,0,1,1-13.54,0H412.9a6.77,6.77,0,1,1-13.54,0h-6.77a6.77,6.77,0,1,1-13.54,0h-6.77a6.77,6.77,0,1,1-13.54,0h-6.53a6.77,6.77,0,1,1-13.54,0H332a7,7,0,0,1-7,7v6.57Z"/><path class="cls-1" d="M650,13.57V7a7,7,0,0,1-7-7h-6.68a6.77,6.77,0,1,1-13.54,0H616a6.77,6.77,0,1,1-13.54,0h-6.77a6.77,6.77,0,1,1-13.54,0H575.4a6.77,6.77,0,1,1-13.54,0h-6.77a6.77,6.77,0,1,1-13.54,0h-6.77a6.77,6.77,0,1,1-13.54,0h-6.53a6.77,6.77,0,1,1-13.54,0h-6.68a7,7,0,0,1-7,7v6.57Z"/><path class="cls-1" d="M812.5,13.57V7a7,7,0,0,1-7-7h-6.68a6.77,6.77,0,1,1-13.54,0h-6.77A6.77,6.77,0,1,1,765,0h-6.77a6.77,6.77,0,1,1-13.54,0H737.9a6.77,6.77,0,1,1-13.54,0h-6.77a6.77,6.77,0,1,1-13.54,0h-6.77a6.77,6.77,0,1,1-13.54,0h-6.53a6.77,6.77,0,1,1-13.54,0H657a7,7,0,0,1-7,7v6.57Z"/><path class="cls-1" d="M975,13.57V7a7,7,0,0,1-7-7h-6.68a6.77,6.77,0,1,1-13.54,0H941a6.77,6.77,0,1,1-13.54,0h-6.77a6.77,6.77,0,1,1-13.54,0H900.4a6.77,6.77,0,1,1-13.54,0h-6.77a6.77,6.77,0,1,1-13.54,0h-6.77a6.77,6.77,0,1,1-13.54,0h-6.53a6.77,6.77,0,1,1-13.54,0h-6.68a7,7,0,0,1-7,7v6.57Z"/><path class="cls-1" d="M1137.5,13.57V7a7,7,0,0,1-7-7h-6.68a6.77,6.77,0,1,1-13.54,0h-6.77A6.77,6.77,0,1,1,1090,0h-6.77a6.77,6.77,0,1,1-13.54,0h-6.77a6.77,6.77,0,1,1-13.54,0h-6.77a6.77,6.77,0,1,1-13.54,0h-6.77a6.77,6.77,0,1,1-13.54,0h-6.53a6.77,6.77,0,1,1-13.54,0H982a7,7,0,0,1-7,7v6.57Z"/><path class="cls-1" d="M1300,13.57V7a7,7,0,0,1-7-7h-6.68a6.77,6.77,0,1,1-13.54,0H1266a6.77,6.77,0,1,1-13.54,0h-6.77a6.77,6.77,0,1,1-13.54,0h-6.77a6.77,6.77,0,1,1-13.54,0h-6.77a6.77,6.77,0,1,1-13.54,0h-6.77a6.77,6.77,0,1,1-13.54,0h-6.53a6.77,6.77,0,1,1-13.54,0h-6.68a7,7,0,0,1-7,7v6.57Z"/><path class="cls-1" d="M1462.5,13.56V7a7,7,0,0,1-7-7h-6.68a6.77,6.77,0,1,1-13.54,0h-6.77A6.77,6.77,0,1,1,1415,0h-6.77a6.77,6.77,0,1,1-13.54,0h-6.77a6.77,6.77,0,1,1-13.54,0h-6.77a6.77,6.77,0,1,1-13.54,0h-6.77a6.77,6.77,0,1,1-13.54,0h-6.53a6.77,6.77,0,1,1-13.54,0H1307a7,7,0,0,1-7,7v6.57Z"/></g></g></svg>