<svg width="19" height="19" viewBox="0 0 19 19" fill="none" xmlns="http://www.w3.org/2000/svg">
<path d="M9.50019 0.730713C4.66455 0.730713 0.730957 4.66431 0.730957 9.49994C0.730957 14.3356 4.66455 18.2692 9.50019 18.2692C14.3358 18.2692 18.2694 14.3356 18.2694 9.49994C18.2694 4.66431 14.3358 0.730713 9.50019 0.730713ZM9.50019 2.19225C13.5451 2.19225 16.8079 5.45502 16.8079 9.49994C16.8079 13.5449 13.5451 16.8076 9.50019 16.8076C5.45527 16.8076 2.1925 13.5449 2.1925 9.49994C2.1925 5.45502 5.45527 2.19225 9.50019 2.19225ZM12.5603 5.161C12.4518 5.17813 12.3605 5.23522 12.2862 5.34369L8.70091 10.6646L7.011 8.99754C6.86542 8.77774 6.58567 8.76061 6.44009 8.90619L5.77783 9.56845C5.63225 9.78825 5.63225 10.0851 5.77783 10.2307L8.33552 12.7884C8.48111 12.8626 8.68664 13.0168 8.90644 13.0168C9.05202 13.0168 9.28609 12.9397 9.43168 12.7199L13.8163 6.27999C13.9619 6.06019 13.8791 5.85466 13.5879 5.70908L12.8572 5.18384C12.7829 5.14673 12.6688 5.14387 12.5603 5.161Z" fill="#0081DF"/>
</svg>
