<svg xmlns="http://www.w3.org/2000/svg" viewBox="0 0 38.04 38.22"><defs><style>.cls-1{fill:#307FE2;}</style></defs><g id="Layer_2" data-name="Layer 2"><g id="_Layer_" data-name="&lt;Layer&gt;"><path class="cls-1" d="M32.5,5.55A18.94,18.94,0,0,0,2.69,28.4L0,38.22l10-2.64a18.91,18.91,0,0,0,9.05,2.31h0A19,19,0,0,0,38,19,18.78,18.78,0,0,0,32.5,5.55ZM28.37,25.7c-.4,1.11-2.29,2.12-3.2,2.25a6.37,6.37,0,0,1-3-.18,28,28,0,0,1-2.7-1c-4.74-2.05-7.84-6.83-8.08-7.15a9.13,9.13,0,0,1-1.93-4.89,5.34,5.34,0,0,1,1.65-4,1.77,1.77,0,0,1,1.27-.59c.31,0,.63,0,.9,0s.68-.11,1.07.81,1.34,3.28,1.46,3.51a.89.89,0,0,1,0,.83,3.21,3.21,0,0,1-.48.79,10.48,10.48,0,0,1-.71.83c-.23.24-.48.49-.2,1a14,14,0,0,0,2.63,3.27,12.67,12.67,0,0,0,3.8,2.35c.48.24.75.2,1-.12s1.18-1.38,1.5-1.85.63-.4,1.06-.24,2.76,1.3,3.24,1.54.79.36.91.55A4.09,4.09,0,0,1,28.37,25.7Z"/></g></g></svg>