<svg xmlns="http://www.w3.org/2000/svg" viewBox="0 0 36.07 36.07"><defs><style>.cls-1{fill:#ff715f;}.cls-2{fill:#307FE2;}</style></defs><g id="Layer_2" data-name="Layer 2"><g id="_Layer_" data-name="&lt;Layer&gt;"><path class="cls-1" d="M30.29,16.65c0,.11,0,.2,0,.29L30,18.6c-.07.56-.15,1.11-.22,1.67s-.15,1.18-.23,1.77c0,0,0,.06-.06.07a.4.4,0,0,1-.11,0H25c-.13,0-.13,0-.13.13v13.7c0,.12,0,.12.13.12h9a1.93,1.93,0,0,0,1.67-.85A2.05,2.05,0,0,0,36.07,34q0-16,0-31.92V2A2,2,0,0,0,35.15.31,2.09,2.09,0,0,0,34,0H1.9a2.1,2.1,0,0,0-.66.14A2,2,0,0,0,0,2C0,3.17,0,4.34,0,5.51V34a2.59,2.59,0,0,0,0,.48,2,2,0,0,0,2,1.61h17.1c.13,0,.13,0,.13-.13V22.25c0-.14,0-.14-.14-.14H14.56V16.65h4.69v-.14c0-1.22,0-2.43,0-3.65,0-.47,0-.94.08-1.41a6.75,6.75,0,0,1,.41-1.83A6,6,0,0,1,22.3,6.43a7.27,7.27,0,0,1,3.57-1c.66,0,1.32,0,2,0l.52,0,1.31.09c.24,0,.47,0,.71.06.08,0,.09,0,.09.12v4.68s0,.06,0,.1h-2.8a5.27,5.27,0,0,0-1.31.15,1.77,1.77,0,0,0-1.3,1.21,3,3,0,0,0-.15.93c0,1.24,0,2.47,0,3.7,0,.13,0,.13.13.13h5.26Z"/><path class="cls-2" d="M30.29,16.65H25c-.13,0-.13,0-.13-.13,0-1.23,0-2.46,0-3.7a3,3,0,0,1,.15-.93,1.77,1.77,0,0,1,1.3-1.21,5.27,5.27,0,0,1,1.31-.15h2.8s0-.07,0-.1V5.75c0-.07,0-.11-.09-.12-.24,0-.47,0-.71-.06l-1.31-.09-.52,0c-.66,0-1.32,0-2,0a7.27,7.27,0,0,0-3.57,1,6,6,0,0,0-2.56,3.19,6.75,6.75,0,0,0-.41,1.83c0,.47-.07.94-.08,1.41,0,1.22,0,2.43,0,3.65v.14H14.56V22.1h4.55c.14,0,.14,0,.14.14V35.93c0,.13,0,.13-.13.13H2a2,2,0,0,1-2-1.61A2.59,2.59,0,0,1,0,34V5.51C0,4.34,0,3.17,0,2A2,2,0,0,1,1.24.14,2.1,2.1,0,0,1,1.9,0H34a2.09,2.09,0,0,1,1.18.31A2,2,0,0,1,36.06,2v.07q0,16,0,31.92a2.05,2.05,0,0,1-.36,1.22,1.93,1.93,0,0,1-1.67.85H25c-.13,0-.13,0-.13-.12V22.24c0-.13,0-.13.13-.13h4.39a.4.4,0,0,0,.11,0s.06,0,.06-.07c.08-.59.16-1.18.23-1.77S30,19.16,30,18.6l.21-1.66C30.26,16.85,30.28,16.76,30.29,16.65Z"/></g></g></svg>