<svg xmlns="http://www.w3.org/2000/svg" viewBox="0 0 24.38 22.98"><defs><style>.cls-1{fill:none;stroke:#ff715f;stroke-linecap:round;stroke-linejoin:round;stroke-width:1.5px;}.cls-2{fill:#ff715f;}</style></defs><g id="Layer_2" data-name="Layer 2"><g id="_Layer_" data-name="&lt;Layer&gt;"><path class="cls-1" d="M5.26,5.18s-6.68,2.33-3.78,5.68,9.58,3.2,16.64,2.91"/><path class="cls-2" d="M10.42,19.57a.57.57,0,0,1,.15-.8l7.28-5L10.24,9.28a.58.58,0,1,1,.59-1l8.39,5a.59.59,0,0,1,.29.48.58.58,0,0,1-.26.49l-8,5.51a.5.5,0,0,1-.31.1A.55.55,0,0,1,10.42,19.57Z"/><polyline class="cls-1" points="8.24 10.44 8.24 0.75 23.63 0.75 23.63 22.23 8.24 22.23 8.24 17.7"/></g></g></svg>