<svg xmlns="http://www.w3.org/2000/svg" viewBox="0 0 142.25 146.11"><defs><style>.cls-1{fill:#307FE2;}.cls-2{fill:#fff;}.cls-3,.cls-5{fill:none;stroke-linecap:round;stroke-linejoin:round;}.cls-3{stroke:#1d1d1b;stroke-width:3px;stroke-dasharray:0 8.06;}.cls-4{fill:#1d1d1b;}.cls-5{stroke:#fff;stroke-width:5.54px;}</style></defs><g id="Layer_2" data-name="Layer 2"><g id="_Layer_" data-name="&lt;Layer&gt;"><circle class="cls-1" cx="82.36" cy="86.22" r="59.89" transform="translate(-26.72 38.08) rotate(-22.5)"/><circle class="cls-2" cx="31.02" cy="31.02" r="29.52"/><circle class="cls-3" cx="31.02" cy="31.02" r="29.52"/><path class="cls-4" d="M34.28,30.3a7.08,7.08,0,0,1,4.52,2.57,8,8,0,0,1,1.69,5.18,8.55,8.55,0,0,1-.71,3.54,7.7,7.7,0,0,1-2,2.74,9.25,9.25,0,0,1-3.13,1.75,12.27,12.27,0,0,1-4,.63,11.93,11.93,0,0,1-5.7-1.31,8.77,8.77,0,0,1-3.69-3.62l2-1.84a7,7,0,0,0,2.74,3,8.84,8.84,0,0,0,4.63,1.11,7.57,7.57,0,0,0,5-1.56A5.56,5.56,0,0,0,37.49,38a5.94,5.94,0,0,0-1.92-4.67A8.16,8.16,0,0,0,30,31.63H28.93V29.14h1.15a7.48,7.48,0,0,0,5.06-1.52,5,5,0,0,0,1.75-4,5.12,5.12,0,0,0-.47-2.27,4.59,4.59,0,0,0-1.3-1.65,6,6,0,0,0-2-1,8.71,8.71,0,0,0-2.46-.34,8.4,8.4,0,0,0-4.3,1.09,7,7,0,0,0-2.81,3l-1.88-1.8a6.71,6.71,0,0,1,1.45-2,9.26,9.26,0,0,1,2.14-1.56,11.38,11.38,0,0,1,2.66-1,12.44,12.44,0,0,1,3-.36,11.31,11.31,0,0,1,3.62.55,8.73,8.73,0,0,1,2.85,1.57,6.89,6.89,0,0,1,1.86,2.42,7.27,7.27,0,0,1,.66,3.12,7.83,7.83,0,0,1-.38,2.47A6.86,6.86,0,0,1,38.44,28a6.49,6.49,0,0,1-1.78,1.55A6.2,6.2,0,0,1,34.28,30.3Z"/><rect class="cls-5" x="52.65" y="76.13" width="59.43" height="32.86"/><rect class="cls-5" x="68.97" y="63.44" width="26.78" height="12.69"/><line class="cls-5" x1="68.97" y1="76.13" x2="68.97" y2="108.99"/><line class="cls-5" x1="95.75" y1="76.13" x2="95.75" y2="108.99"/></g></g></svg>