<svg xmlns="http://www.w3.org/2000/svg" viewBox="0 0 143.42 146.11"><defs><style>.cls-1{fill:#307FE2;}.cls-2{fill:#fff;}.cls-3,.cls-5{fill:none;stroke-linecap:round;stroke-linejoin:round;}.cls-3{stroke:#1d1d1b;stroke-width:3px;stroke-dasharray:0 8.06;}.cls-4{fill:#1d1d1b;}.cls-5{stroke:#fff;stroke-width:5.54px;}</style></defs><g id="Layer_2" data-name="Layer 2"><g id="_Layer_" data-name="&lt;Layer&gt;"><circle class="cls-1" cx="83.53" cy="86.22" r="59.89" transform="translate(-36.5 84.32) rotate(-45)"/><circle class="cls-2" cx="31.02" cy="31.02" r="29.52"/><circle class="cls-3" cx="31.02" cy="31.02" r="29.52"/><path class="cls-4" d="M39.25,40v2.65H24.73V40h6.08V21.65a4.58,4.58,0,0,1-1.18,1.12,14.24,14.24,0,0,1-1.84,1.11,14,14,0,0,1-2.08.86,6.2,6.2,0,0,1-1.88.34V22.25A5.11,5.11,0,0,0,26,21.7a14.88,14.88,0,0,0,2.23-1.29A19,19,0,0,0,30,19a3.72,3.72,0,0,0,.81-.86h3V40Z"/><path class="cls-5" d="M97.53,80.59A17.78,17.78,0,1,1,79.75,62.82,17.78,17.78,0,0,1,97.53,80.59Z"/><line class="cls-5" x1="91.16" y1="94.92" x2="105.09" y2="109.62"/></g></g></svg>