<svg xmlns="http://www.w3.org/2000/svg" viewBox="0 0 142.1 146.11"><defs><style>.cls-1{fill:#ff715f;}.cls-2{fill:#fff;}.cls-3,.cls-5{fill:none;stroke-linecap:round;stroke-linejoin:round;}.cls-3{stroke:#1d1d1b;stroke-width:3px;stroke-dasharray:0 8.06;}.cls-4{fill:#1d1d1b;}.cls-5{stroke:#fff;stroke-width:5.54px;}</style></defs><g id="Layer_2" data-name="Layer 2"><g id="_Layer_" data-name="&lt;Layer&gt;"><circle class="cls-1" cx="82.21" cy="86.22" r="59.89" transform="translate(-17.61 21.2) rotate(-13.28)"/><circle class="cls-2" cx="31.02" cy="31.02" r="29.52"/><circle class="cls-3" cx="31.02" cy="31.02" r="29.52"/><path class="cls-4" d="M21.75,42.64A17.15,17.15,0,0,1,22,39.71a10.08,10.08,0,0,1,1-2.93A10.75,10.75,0,0,1,25.16,34a15.5,15.5,0,0,1,3.7-2.55c.83-.43,1.69-.85,2.59-1.26a17.48,17.48,0,0,0,2.49-1.4A7.94,7.94,0,0,0,35.8,27a3.59,3.59,0,0,0,.73-2.25,3.74,3.74,0,0,0-.37-1.61,4.23,4.23,0,0,0-1.07-1.41,5.59,5.59,0,0,0-1.75-1,7.33,7.33,0,0,0-2.47-.38,7.09,7.09,0,0,0-2.52.41,8.86,8.86,0,0,0-2,1A8.26,8.26,0,0,0,25,22.92c-.4.41-.7.75-.9,1l-1.92-2.1c.17-.17.49-.48,1-.94A11,11,0,0,1,25,19.51a15.52,15.52,0,0,1,2.76-1.22,11,11,0,0,1,3.56-.53,10.61,10.61,0,0,1,3.51.53,7.71,7.71,0,0,1,2.61,1.48,6.5,6.5,0,0,1,1.63,2.16,6.14,6.14,0,0,1,.56,2.55,5.73,5.73,0,0,1-.78,3A8.68,8.68,0,0,1,37,29.75a14.14,14.14,0,0,1-2.42,1.61c-.86.44-1.63.82-2.31,1.13a26.87,26.87,0,0,0-2.68,1.35,14.76,14.76,0,0,0-2.34,1.65,8.45,8.45,0,0,0-1.69,2A4.8,4.8,0,0,0,24.88,40H40.13v2.65Z"/><polyline class="cls-5" points="63.77 83.99 63.77 63.44 100.66 63.44 100.66 108.99 81.67 95.62 63.77 108.99 63.77 84.19"/></g></g></svg>