<svg xmlns="http://www.w3.org/2000/svg" viewBox="0 0 43.98 35.94"><defs><style>.cls-1{fill:#307FE2;}</style></defs><g id="Layer_2" data-name="Layer 2"><g id="_Layer_" data-name="&lt;Layer&gt;"><path class="cls-1" d="M0,31.91c.51,0,1,.07,1.44.07s.92,0,1.38,0,1-.07,1.41-.13.92-.12,1.37-.21.92-.2,1.37-.33.91-.27,1.35-.43.86-.34,1.27-.53.85-.41,1.27-.63.79-.47,1.18-.72a11.45,11.45,0,0,0,1.15-.82c-.06-.11-.15-.07-.22-.07a9.15,9.15,0,0,1-8-5.93l-.09-.26s0,0,0-.07c.43,0,.87.09,1.3.11a7.62,7.62,0,0,0,1.35,0,3.31,3.31,0,0,0,1.27-.28,9.09,9.09,0,0,1-5.9-4.29,8.37,8.37,0,0,1-1.2-4.65c.22.06.41.2.62.28l.61.25c.21.08.43.15.65.21a5.58,5.58,0,0,0,.68.16,4.76,4.76,0,0,0,.64.11l.68.06c.05-.1,0-.12-.06-.15-.24-.2-.5-.38-.73-.59a9,9,0,0,1-3-5.47A9,9,0,0,1,2.76,2a1.37,1.37,0,0,1,.13-.2s0,0,.07-.05l1,1.08c.32.34.65.69,1,1s.7.66,1.06,1,.72.61,1.09.9.77.59,1.17.86.78.53,1.18.78.83.5,1.26.73.83.44,1.26.64.88.4,1.33.58.87.35,1.32.5.92.3,1.38.43.92.24,1.38.34.94.2,1.42.28.93.15,1.4.19a7,7,0,0,0,1.46.08,9.15,9.15,0,0,1,1.12-6.76A9,9,0,0,1,26.58.88a9.14,9.14,0,0,1,10.53,2l.66-.13A18.61,18.61,0,0,0,42.51.87l.27-.15c.06.07,0,.12,0,.17a8.93,8.93,0,0,1-3.46,4.5l-.27.2s0,0,0,.06a10.49,10.49,0,0,0,1.66-.29c.56-.13,1.11-.28,1.66-.46s1.05-.38,1.58-.56c.06,0,0,.08,0,.12a.44.44,0,0,1-.08.11,19,19,0,0,1-2.45,2.85A18.86,18.86,0,0,1,39.8,8.77L39.57,9v.38a24.31,24.31,0,0,1-.07,2.83,26.49,26.49,0,0,1-1.44,6.59,26.37,26.37,0,0,1-5.92,9.63,24.18,24.18,0,0,1-11.49,6.7,25.1,25.1,0,0,1-3.66.68,27.89,27.89,0,0,1-4.66.14,25.57,25.57,0,0,1-12-3.76A1.15,1.15,0,0,1,0,31.91Z"/></g></g></svg>