<svg width="359" height="8" viewBox="0 0 359 8" fill="none" xmlns="http://www.w3.org/2000/svg">
<path d="M7.99822 0L0 8H22.1684L30.1666 0H7.99822Z" fill="#307FE2"/>
<path d="M49.2158 0L41.231 8H63.3994L71.3976 0H49.2158Z" fill="#FF715F"/>
<path d="M90.4468 0L82.4619 8H104.63L112.629 0H90.4468Z" fill="#307FE2"/>
<path d="M131.677 0L123.692 8H145.861L153.859 0H131.677Z" fill="#FF715F"/>
<path d="M172.908 0L164.923 8H187.092L195.077 0H172.908Z" fill="#307FE2"/>
<path d="M214.139 0L206.141 8H228.322L236.307 0H214.139Z" fill="#FF715F"/>
<path d="M255.37 0L247.372 8H269.553L277.538 0H255.37Z" fill="#307FE2"/>
<path d="M337.998 0L330 8H352.182L360.167 0H337.998Z" fill="#307FE2"/>
<path d="M296.601 0L288.603 8H310.771L318.769 0H296.601Z" fill="#FF715F"/>
</svg>
